<svg width="24" height="24" viewBox="0 0 24 24" fill="none" xmlns="http://www.w3.org/2000/svg">
<path d="M12.5 4.5C11.837 4.5 11.2011 4.23661 10.7322 3.76777C10.2634 3.29893 10 2.66304 10 2H9C5 2 4 3 4 7L4 17C4 21 5 22 9 22H9.5C9.5 21.337 9.76339 20.7011 10.2322 20.2322C10.7011 19.7634 11.337 19.5 12 19.5C12.663 19.5 13.2989 19.7634 13.7678 20.2322C14.2366 20.7011 14.5 21.337 14.5 22H15C19 22 20 21 20 17V7C20 3 19 2 15 2C15 2.66304 14.7366 3.29893 14.2678 3.76777C13.7989 4.23661 13.163 4.5 12.5 4.5Z" stroke="white" stroke-width="1.5" stroke-linecap="round" stroke-linejoin="round"/>
<path d="M4 14L20 14" stroke="white" stroke-width="1.5" stroke-linecap="round" stroke-linejoin="round" stroke-dasharray="5 5"/>
</svg>
