<svg width="18" height="22" viewBox="0 0 18 22" fill="none" xmlns="http://www.w3.org/2000/svg">
<path d="M9.5 3.5C8.83696 3.5 8.20107 3.23661 7.73223 2.76777C7.26339 2.29893 7 1.66304 7 1H6C2 1 1 2 1 6L1 16C1 20 2 21 6 21H6.5C6.5 20.337 6.76339 19.7011 7.23223 19.2322C7.70107 18.7634 8.33696 18.5 9 18.5C9.66304 18.5 10.2989 18.7634 10.7678 19.2322C11.2366 19.7011 11.5 20.337 11.5 21H12C16 21 17 20 17 16V6C17 2 16 1 12 1C12 1.66304 11.7366 2.29893 11.2678 2.76777C10.7989 3.23661 10.163 3.5 9.5 3.5Z" stroke="white" stroke-width="1.5" stroke-linecap="round" stroke-linejoin="round"/>
</svg>
