<svg width="40" height="40" viewBox="0 0 40 40" fill="none" xmlns="http://www.w3.org/2000/svg">
<path d="M32.5 20.8334C32.5 19.7283 32.939 18.6685 33.7204 17.8871C34.5018 17.1057 35.5616 16.6667 36.6667 16.6667V15.0001C36.6667 8.33341 35 6.66675 28.3333 6.66675H11.6667C5.00001 6.66675 3.33334 8.33341 3.33334 15.0001V15.8334C4.43841 15.8334 5.49822 16.2724 6.27962 17.0538C7.06102 17.8352 7.50001 18.895 7.50001 20.0001C7.50001 21.1052 7.06102 22.165 6.27962 22.9464C5.49822 23.7278 4.43841 24.1667 3.33334 24.1667V25.0001C3.33334 31.6667 5.00001 33.3334 11.6667 33.3334H28.3333C35 33.3334 36.6667 31.6667 36.6667 25.0001C35.5616 25.0001 34.5018 24.5611 33.7204 23.7797C32.939 22.9983 32.5 21.9385 32.5 20.8334Z" stroke="#7BD7B8" stroke-width="1.5" stroke-linecap="round" stroke-linejoin="round"/>
<path d="M16.6667 6.66675V33.3334" stroke="#7BD7B8" stroke-width="1.5" stroke-linecap="round" stroke-linejoin="round" stroke-dasharray="5 5"/>
</svg>
