<svg width="25" height="25" viewBox="0 0 25 25" fill="none" xmlns="http://www.w3.org/2000/svg">
<path d="M12.9731 5.33534C12.3219 5.33534 11.6975 5.07494 11.237 4.61143C10.7766 4.14791 10.5179 3.51925 10.5179 2.86375H9.5359C5.60769 2.86375 4.62564 3.85238 4.62564 7.80693L4.62564 17.6933C4.62564 21.6478 5.60769 22.6365 9.5359 22.6365H10.0269C10.0269 21.981 10.2856 21.3523 10.746 20.8888C11.2064 20.4253 11.8309 20.1649 12.4821 20.1649C13.1332 20.1649 13.7577 20.4253 14.2181 20.8888C14.6785 21.3523 14.9372 21.981 14.9372 22.6365H15.4282C19.3564 22.6365 20.3385 21.6478 20.3385 17.6933V7.80693C20.3385 3.85238 19.3564 2.86375 15.4282 2.86375C15.4282 3.51925 15.1695 4.14791 14.7091 4.61143C14.2487 5.07494 13.6242 5.33534 12.9731 5.33534Z" stroke="#DEBF4E" stroke-width="1.5" stroke-linecap="round" stroke-linejoin="round"/>
<path d="M4.62564 14.7273L20.3385 14.7273" stroke="#DEBF4E" stroke-width="1.5" stroke-linecap="round" stroke-linejoin="round" stroke-dasharray="5 5"/>
</svg>
