<svg width="204" height="347" viewBox="0 0 204 347" fill="none" xmlns="http://www.w3.org/2000/svg">
<line x1="103.015" y1="209.667" x2="103.015" y2="346.182" stroke="black" stroke-dasharray="5 5"/>
<line x1="105.076" y1="0.00563874" x2="103.53" y2="137.036" stroke="black" stroke-dasharray="5 5"/>
<line y1="171.046" x2="63.3636" y2="171.046" stroke="black" stroke-dasharray="5 5"/>
<line x1="140.636" y1="171.046" x2="204" y2="171.046" stroke="black" stroke-dasharray="5 5"/>
<path d="M138.885 166.188C139.202 167.74 139.418 169.329 139.526 170.946L139.027 170.979C139.08 171.762 139.106 172.552 139.106 173.348C139.106 174.145 139.08 174.935 139.027 175.718L139.526 175.751C139.418 177.368 139.202 178.956 138.885 180.509L138.396 180.409C138.077 181.969 137.655 183.493 137.136 184.973L137.608 185.138C137.076 186.657 136.444 188.131 135.719 189.552L135.274 189.325C134.554 190.735 133.743 192.093 132.846 193.39L133.258 193.675C132.347 194.993 131.349 196.25 130.274 197.437L129.903 197.101C128.844 198.271 127.708 199.372 126.502 200.398L126.826 200.779C125.609 201.814 124.323 202.772 122.974 203.647L122.702 203.227C121.382 204.084 120.002 204.858 118.57 205.544L118.786 205.995C117.35 206.682 115.863 207.281 114.331 207.785L114.174 207.31C112.686 207.8 111.155 208.198 109.588 208.498L109.682 208.989C108.127 209.287 106.536 209.49 104.918 209.592L104.887 209.093C104.103 209.142 103.312 209.167 102.515 209.167C101.718 209.167 100.928 209.142 100.143 209.093L100.112 209.592C98.494 209.49 96.9039 209.287 95.3487 208.989L95.4429 208.498C93.8757 208.198 92.3444 207.8 90.856 207.31L90.6998 207.785C89.1677 207.281 87.6803 206.682 86.2448 205.995L86.4607 205.544C85.0282 204.858 83.6482 204.084 82.3282 203.227L82.0561 203.647C80.7079 202.772 79.4215 201.814 78.2047 200.779L78.5286 200.398C77.3229 199.372 76.1864 198.271 75.127 197.101L74.7564 197.437C73.681 196.25 72.6839 194.993 71.7729 193.675L72.1842 193.39C71.2879 192.093 70.4762 190.735 69.7568 189.325L69.3114 189.552C68.5868 188.131 67.9546 186.657 67.4223 185.138L67.8942 184.973C67.3757 183.493 66.9535 181.969 66.6349 180.409L66.145 180.509C65.828 178.956 65.6121 177.368 65.5042 175.751L66.0031 175.718C65.9509 174.935 65.9243 174.145 65.9243 173.348C65.9243 172.552 65.9509 171.762 66.0031 170.979L65.5042 170.946C65.6121 169.329 65.828 167.74 66.145 166.188L66.6349 166.288C66.9535 164.728 67.3757 163.204 67.8942 161.724L67.4223 161.559C67.9546 160.04 68.5868 158.566 69.3114 157.145L69.7568 157.372C70.4762 155.961 71.2879 154.604 72.1842 153.307L71.7729 153.022C72.6839 151.704 73.681 150.447 74.7564 149.26L75.127 149.596C76.1864 148.426 77.3229 147.325 78.5286 146.299L78.2047 145.918C79.4215 144.883 80.7079 143.925 82.0561 143.05L82.3282 143.47C83.6482 142.613 85.0282 141.839 86.4607 141.153L86.2448 140.702C87.6803 140.015 89.1677 139.416 90.6998 138.912L90.856 139.387C92.3444 138.897 93.8757 138.499 95.4429 138.199L95.3487 137.708C96.9039 137.41 98.4939 137.207 100.112 137.105L100.143 137.604C100.928 137.555 101.718 137.53 102.515 137.53C103.312 137.53 104.103 137.555 104.887 137.604L104.918 137.105C106.536 137.207 108.127 137.41 109.682 137.708L109.588 138.199C111.155 138.499 112.686 138.897 114.174 139.387L114.331 138.912C115.863 139.416 117.35 140.015 118.786 140.702L118.57 141.153C120.002 141.839 121.382 142.613 122.702 143.47L122.974 143.05C124.323 143.925 125.609 144.883 126.826 145.918L126.502 146.299C127.708 147.325 128.844 148.426 129.903 149.596L130.274 149.26C131.349 150.447 132.347 151.704 133.258 153.022L132.846 153.307C133.743 154.604 134.554 155.961 135.274 157.372L135.719 157.145C136.444 158.566 137.076 160.04 137.608 161.559L137.136 161.724C137.655 163.204 138.077 164.728 138.396 166.288L138.885 166.188Z" stroke="black" stroke-dasharray="5 5"/>
</svg>
